<svg width="24" height="24" viewBox="0 0 24 24" fill="none" xmlns="http://www.w3.org/2000/svg">
    <path
        d="M12 22.08C11.7 22.08 11.4 22.01 11.15 21.87C9.28 20.85 5.99 19.77 3.93 19.5L3.64 19.46C2.33 19.3 1.25 18.07 1.25 16.74V4.65999C1.25 3.86999 1.56 3.14999 2.13 2.62999C2.7 2.10999 3.44 1.85999 4.22 1.92999C6.42 2.09999 9.74 3.19999 11.62 4.37999L11.86 4.51999C11.93 4.55999 12.08 4.55999 12.14 4.52999L12.3 4.42999C14.18 3.24999 17.5 2.12999 19.71 1.93999C19.73 1.93999 19.81 1.93999 19.83 1.93999C20.56 1.86999 21.31 2.12999 21.87 2.64999C22.44 3.16999 22.75 3.88999 22.75 4.67999V16.75C22.75 18.09 21.67 19.31 20.35 19.47L20.02 19.51C17.96 19.78 14.66 20.87 12.83 21.88C12.59 22.02 12.3 22.08 12 22.08ZM3.98 3.41999C3.66 3.41999 3.37 3.52999 3.14 3.73999C2.89 3.96999 2.75 4.29999 2.75 4.65999V16.74C2.75 17.33 3.26 17.9 3.83 17.98L4.13 18.02C6.38 18.32 9.83 19.45 11.83 20.54C11.92 20.58 12.05 20.59 12.1 20.57C14.1 19.46 17.57 18.32 19.83 18.02L20.17 17.98C20.74 17.91 21.25 17.33 21.25 16.74V4.66999C21.25 4.29999 21.11 3.97999 20.86 3.73999C20.6 3.50999 20.27 3.39999 19.9 3.41999C19.88 3.41999 19.8 3.41999 19.78 3.41999C17.87 3.58999 14.79 4.61999 13.11 5.66999L12.95 5.77999C12.4 6.11999 11.62 6.11999 11.09 5.78999L10.85 5.64999C9.14 4.59999 6.06 3.57999 4.1 3.41999C4.06 3.41999 4.02 3.41999 3.98 3.41999Z"
        fill="#FFFFFF" />
    <path
        d="M12 21.24C11.59 21.24 11.25 20.9 11.25 20.49V5.49001C11.25 5.08001 11.59 4.74001 12 4.74001C12.41 4.74001 12.75 5.08001 12.75 5.49001V20.49C12.75 20.91 12.41 21.24 12 21.24Z"
        fill="#FFFFFF" />
    <path
        d="M7.75 9.24001H5.5C5.09 9.24001 4.75 8.90001 4.75 8.49001C4.75 8.08001 5.09 7.74001 5.5 7.74001H7.75C8.16 7.74001 8.5 8.08001 8.5 8.49001C8.5 8.90001 8.16 9.24001 7.75 9.24001Z"
        fill="#FFFFFF" />
    <path
        d="M8.5 12.24H5.5C5.09 12.24 4.75 11.9 4.75 11.49C4.75 11.08 5.09 10.74 5.5 10.74H8.5C8.91 10.74 9.25 11.08 9.25 11.49C9.25 11.9 8.91 12.24 8.5 12.24Z"
        fill="#FFFFFF" />
</svg>